<?xml version="1.0" standalone="no"?>
<!DOCTYPE svg PUBLIC "-//W3C//DTD SVG 20010904//EN"
 "http://www.w3.org/TR/2001/REC-SVG-20010904/DTD/svg10.dtd">
<svg version="1.0" xmlns="http://www.w3.org/2000/svg"
 width="700.000000pt" height="700.000000pt" viewBox="0 0 700.000000 700.000000"
 preserveAspectRatio="xMidYMid meet">

<g transform="translate(0.000000,700.000000) scale(0.100000,-0.100000)"
fill="#000000" stroke="none">
<path d="M1909 6772 c-26 -23 -33 -37 -32 -63 1 -26 174 -334 702 -1247 386
-667 701 -1217 701 -1222 0 -5 -11 -25 -24 -45 -59 -86 -55 -223 9 -310 l22
-30 -278 -480 c-153 -264 -279 -484 -281 -489 -2 -5 -35 3 -73 17 -151 54
-370 61 -524 17 -377 -108 -641 -456 -641 -844 0 -140 25 -186 100 -186 25 0
43 7 58 23 19 20 22 37 26 162 4 158 17 209 77 325 167 323 571 461 901 307
300 -140 463 -474 387 -794 -6 -26 -31 -90 -56 -142 -38 -79 -59 -108 -131
-181 -72 -72 -102 -95 -172 -128 -127 -61 -189 -76 -310 -76 -149 -1 -243 25
-382 107 -54 31 -73 37 -97 32 -68 -15 -93 -100 -45 -148 54 -54 202 -123 329
-153 103 -25 296 -22 400 5 312 82 553 323 636 636 26 96 31 287 10 380 -41
185 -135 352 -267 474 l-76 70 278 483 279 483 65 3 65 2 179 -312 c99 -172
224 -391 279 -486 l100 -173 -76 -70 c-133 -122 -228 -291 -268 -474 -20 -94
-16 -275 9 -372 122 -477 592 -759 1066 -641 297 74 537 307 626 608 31 107
38 288 15 401 -56 279 -225 499 -475 618 -211 101 -437 116 -663 44 -43 -13
-80 -23 -81 -21 -1 2 -128 221 -281 487 l-278 483 17 27 c38 58 49 97 50 167
0 62 -4 81 -32 135 l-33 63 130 226 c71 124 134 237 140 252 32 84 -84 155
-144 88 -9 -10 -76 -121 -149 -247 l-132 -228 -63 0 -64 0 -205 355 c-112 195
-425 738 -695 1205 -269 468 -499 860 -511 872 -12 12 -35 25 -52 29 -26 5
-38 1 -65 -24z m1654 -2642 c37 -30 52 -80 34 -122 -19 -45 -39 -60 -91 -65
-38 -5 -47 -1 -77 25 -29 26 -34 37 -34 77 0 40 5 51 33 76 40 36 96 39 135 9z
m1274 -1389 c191 -63 335 -185 419 -356 165 -335 48 -715 -281 -914 -139 -84
-367 -111 -525 -62 -128 39 -206 86 -301 181 -72 71 -93 100 -132 180 -100
205 -101 414 -1 615 87 177 254 313 448 366 95 26 281 21 373 -10z"/>
<path d="M5003 6790 c-30 -12 -23 0 -472 -779 -275 -476 -401 -704 -401 -724
0 -39 49 -87 89 -87 17 0 40 9 54 23 20 18 763 1293 839 1438 17 33 18 44 8
73 -6 19 -17 39 -24 45 -19 16 -68 22 -93 11z"/>
<path d="M4032 5117 c-31 -18 -71 -85 -72 -120 0 -38 49 -87 87 -87 36 0 65
20 92 64 31 50 28 98 -10 130 -33 28 -62 32 -97 13z"/>
<path d="M1615 1756 c-32 -32 -32 -76 0 -131 32 -55 70 -72 118 -52 66 28 76
91 24 159 -28 37 -39 43 -75 46 -34 3 -47 -2 -67 -22z"/>
</g>
</svg>
